<?xml version="1.0" encoding="utf-8"?>
<!-- Generator: Adobe Illustrator 15.0.0, SVG Export Plug-In . SVG Version: 6.00 Build 0)  -->
<!DOCTYPE svg PUBLIC "-//W3C//DTD SVG 1.1//EN" "http://www.w3.org/Graphics/SVG/1.1/DTD/svg11.dtd">
<svg version="1.1" id="Layer_1" xmlns="http://www.w3.org/2000/svg" xmlns:xlink="http://www.w3.org/1999/xlink" x="0px" y="0px"
	 width="500px" height="360px" viewBox="0 0 500 360" enable-background="new 0 0 500 360" xml:space="preserve">
<g>
	<ellipse fill="#F9F9F9" cx="253.084" cy="346.518" rx="203.176" ry="13.547"/>
	<path fill="#F8F3FF" d="M41.866,62.878h188.769c0,0-14.669-32.178-33.488-28.603c-18.819,3.575-21.901,11.441-33.219,4.291
		c-11.318-7.151-15.064-24.312-38.074-24.312c-17.411,0-15.8,17.876-39.524,20.021C62.605,36.421,51.992,47.862,41.866,62.878z"/>
	<path fill="#F8F3FF" d="M480.207,146.806H348.486c0,0,10.236-22.454,23.369-19.958c13.131,2.495,15.281,7.983,23.18,2.994
		c7.896-4.99,10.511-16.965,26.566-16.965c12.149,0,11.025,12.474,27.58,13.971C465.735,128.345,473.142,136.328,480.207,146.806z"
		/>
	
		<ellipse transform="matrix(0.8296 -0.5583 0.5583 0.8296 -41.2439 88.6854)" fill="#1DBE72" cx="124.69" cy="111.921" rx="41.38" ry="23.983"/>
	<path fill="#1DBE72" d="M0.048,328.064H500c0,0-5.793-49.432-33.799-60.283c-28.005-10.85-11.593-55.759-50.149-73.32
		C377.496,176.9,337.68,79.752,258.471,80.946c-105.617,1.591-82.557,72.293-156.887,75.046
		c-38.012,1.408-21.583,69.809-73.652,92.236C-2.416,261.299,0.048,328.064,0.048,328.064z"/>
	<path fill="#189657" d="M52.96,328.064h418.883c0,0-4.854-41.417-28.318-50.508c-23.463-9.091-9.713-46.718-42.018-61.432
		c-32.304-14.713-65.664-96.108-132.029-95.108c-88.49,1.333-69.169,60.571-131.447,62.878
		c-31.848,1.18-18.083,58.488-61.709,77.279C50.896,272.125,52.96,328.064,52.96,328.064z"/>
	<polygon fill="#E6F4FC" points="402.887,35.972 402.887,329.7 156.582,329.7 156.582,0 365.479,0 	"/>
	<polygon fill="#8AB6C1" points="402.887,35.972 365.479,35.972 365.479,0 	"/>
	<rect x="172.473" y="35.972" fill="#D7F0F9" width="76.97" height="90.542"/>
	<circle fill="#EA9315" cx="210.958" cy="60.965" r="14.153"/>
	<path fill="#EA9315" d="M172.473,126.514c0,0,14.649-47.175,38.486-47.175c23.835,0,38.484,47.175,38.484,47.175H172.473z"/>
	<g>
		<rect x="172.473" y="17.49" fill="#8AB6C1" width="117.855" height="0.993"/>
	</g>
	<g>
		<rect x="307.212" y="17.49" fill="#8AB6C1" width="47.672" height="0.993"/>
	</g>
	<g>
		<rect x="265.168" y="43.651" fill="#8AB6C1" width="43.369" height="0.993"/>
	</g>
	<g>
		<rect x="265.168" y="57.728" fill="#8AB6C1" width="62.57" height="0.993"/>
	</g>
	<g>
		<rect x="265.168" y="71.804" fill="#8AB6C1" width="77.798" height="0.993"/>
	</g>
	<g>
		<rect x="265.168" y="85.88" fill="#8AB6C1" width="77.798" height="0.993"/>
	</g>
	<g>
		<rect x="265.168" y="111.941" fill="#8AB6C1" width="104.613" height="0.993"/>
	</g>
	<g>
		<rect x="265.168" y="126.017" fill="#8AB6C1" width="104.613" height="0.994"/>
	</g>
	<rect x="172.701" y="142.932" fill="#AAD6E2" width="158.575" height="171.312"/>
	<rect x="343.193" y="142.932" fill="#8AB6C1" width="43.575" height="171.312"/>
	<g>
		<rect x="186.211" y="159.785" fill="#8AB6C1" width="43.368" height="0.993"/>
	</g>
	<g>
		<rect x="186.211" y="173.861" fill="#8AB6C1" width="62.569" height="0.993"/>
	</g>
	<g>
		<rect x="186.211" y="187.938" fill="#8AB6C1" width="106.931" height="0.994"/>
	</g>
	<g>
		<rect x="186.211" y="202.014" fill="#8AB6C1" width="106.931" height="0.993"/>
	</g>
	<g>
		<rect x="186.211" y="230.166" fill="#8AB6C1" width="43.368" height="0.994"/>
	</g>
	<g>
		<rect x="186.211" y="244.243" fill="#8AB6C1" width="62.569" height="0.993"/>
	</g>
	<g>
		<rect x="186.211" y="258.318" fill="#8AB6C1" width="106.931" height="0.994"/>
	</g>
	<g>
		<rect x="186.211" y="272.396" fill="#8AB6C1" width="106.931" height="0.993"/>
	</g>
	<g>
		<rect x="188.694" y="303.803" fill="#8AB6C1" width="128.78" height="0.992"/>
	</g>
	<g>
		<rect x="207.564" y="295.438" fill="#8AB6C1" width="91.041" height="0.993"/>
	</g>
	<g>
		<rect x="348.263" y="155.067" fill="#6A98A0" width="12.663" height="0.993"/>
	</g>
	<g>
		<rect x="348.263" y="162.268" fill="#6A98A0" width="24.829" height="0.993"/>
	</g>
	<g>
		<rect x="348.263" y="169.468" fill="#6A98A0" width="24.829" height="0.993"/>
	</g>
	<g>
		<rect x="348.263" y="183.221" fill="#6A98A0" width="12.663" height="0.992"/>
	</g>
	<g>
		<rect x="348.263" y="190.42" fill="#6A98A0" width="24.829" height="0.994"/>
	</g>
	<g>
		<rect x="348.263" y="197.621" fill="#6A98A0" width="24.829" height="0.993"/>
	</g>
	<g>
		<rect x="348.263" y="211.373" fill="#6A98A0" width="12.663" height="0.992"/>
	</g>
	<g>
		<rect x="348.263" y="218.573" fill="#6A98A0" width="24.829" height="0.993"/>
	</g>
	<g>
		<rect x="348.263" y="225.773" fill="#6A98A0" width="24.829" height="0.993"/>
	</g>
	<g>
		<rect x="348.263" y="239.525" fill="#6A98A0" width="12.663" height="0.993"/>
	</g>
	<g>
		<rect x="348.263" y="246.727" fill="#6A98A0" width="24.829" height="0.992"/>
	</g>
	<g>
		<rect x="348.263" y="253.926" fill="#6A98A0" width="24.829" height="0.994"/>
	</g>
	<polygon fill="#E6F4FC" points="353.986,276.365 355.111,278.645 357.627,279.01 355.807,280.785 356.236,283.29 353.986,282.107 
		351.736,283.29 352.166,280.785 350.346,279.01 352.861,278.645 	"/>
	<polygon fill="#E6F4FC" points="366.188,276.365 367.312,278.645 369.828,279.01 368.008,280.785 368.438,283.29 366.188,282.107 
		363.938,283.29 364.367,280.785 362.547,279.01 365.062,278.645 	"/>
	<polygon fill="#E6F4FC" points="378.391,276.365 379.516,278.645 382.031,279.01 380.211,280.785 380.641,283.29 378.391,282.107 
		376.14,283.29 376.569,280.785 374.749,279.01 377.266,278.645 	"/>
	<polygon fill="#E6F4FC" points="360.087,286.559 361.213,288.838 363.729,289.203 361.907,290.978 362.338,293.482 
		360.087,292.301 357.837,293.482 358.268,290.978 356.446,289.203 358.962,288.838 	"/>
	<polygon fill="#E6F4FC" points="372.289,286.559 373.414,288.838 375.93,289.203 374.109,290.978 374.539,293.482 372.289,292.301 
		370.039,293.482 370.469,290.978 368.648,289.203 371.164,288.838 	"/>
	<polygon opacity="0.18" fill="#AAD6E2" points="156.582,0 402.887,329.7 402.887,35.972 365.479,35.972 365.479,0 	"/>
	<ellipse fill="#D4D5D6" cx="142.797" cy="346.78" rx="54.008" ry="8.745"/>
	<g>
		<path fill="#936BC1" d="M63.96,330.639c-0.204-17.784,4.724-47.332,4.774-47.629l0.579,0.098
			c-0.05,0.297-4.969,29.793-4.766,47.524L63.96,330.639z"/>
	</g>
	<path fill="#D8C3ED" d="M59.406,348.336c-0.634,0.002-1.271,0.006-1.912,0.014c-0.044-0.072-0.092-0.141-0.138-0.211l-0.427-0.626
		l-0.461-0.606c-0.3-0.411-0.643-0.788-0.969-1.182c-0.685-0.758-1.394-1.504-2.166-2.189c-1.531-1.381-3.204-2.635-5.021-3.66
		c1.929,0.807,3.758,1.866,5.481,3.09c0.868,0.604,1.687,1.282,2.489,1.984c0.385,0.367,0.791,0.719,1.154,1.113l0.56,0.579
		l0.529,0.609C58.828,347.605,59.122,347.967,59.406,348.336z"/>
	<path fill="#936BC1" d="M63.106,348.352c-0.169-0.004-0.338-0.006-0.508-0.006c-0.598-0.006-1.198-0.01-1.802-0.01
		c-0.992-2.104-2.192-4.121-3.495-6.087l-0.323-0.49l-0.339-0.479l-0.679-0.955c-0.458-0.637-0.946-1.248-1.419-1.873
		c-0.986-1.22-1.994-2.428-3.073-3.572c-1.065-1.158-2.185-2.268-3.348-3.332c-0.289-0.27-0.583-0.533-0.881-0.789
		c-0.296-0.264-0.596-0.518-0.902-0.77c-0.612-0.498-1.217-1.01-1.889-1.429c0.704,0.367,1.35,0.833,2,1.282
		c0.325,0.229,0.646,0.462,0.963,0.701c0.319,0.234,0.635,0.477,0.944,0.723c1.252,0.979,2.466,2.008,3.631,3.094
		c1.177,1.072,2.291,2.213,3.389,3.373c0.529,0.6,1.077,1.182,1.59,1.795l0.77,0.922l0.384,0.461l0.368,0.475
		c0.484,0.639,0.996,1.26,1.446,1.924c0.46,0.66,0.94,1.302,1.37,1.99c0.236,0.352,0.459,0.714,0.677,1.077
		c0.2,0.331,0.395,0.663,0.592,0.996C62.753,347.697,62.932,348.024,63.106,348.352z"/>
	<path fill="#D8C3ED" d="M64.876,348.373c-0.098,0-0.198-0.004-0.296-0.004c-0.224-0.002-0.446-0.006-0.669-0.008
		c-0.268-0.006-0.535-0.008-0.804-0.01c-0.169-0.004-0.338-0.006-0.508-0.006c-0.011-0.045-0.025-0.09-0.038-0.133
		c-0.118-0.406-0.239-0.811-0.373-1.208l-0.206-0.629l-0.187-0.575l-0.427-1.19c-0.137-0.397-0.289-0.79-0.446-1.181l-0.467-1.176
		c-0.348-0.763-0.658-1.549-1.046-2.293c-1.488-3.023-3.281-5.941-5.187-8.763c-1.927-2.812-3.983-5.55-6.224-8.14
		c2.419,2.424,4.675,5.016,6.814,7.705c2.125,2.706,4.133,5.502,5.891,8.504l0.331,0.566c0.108,0.188,0.206,0.383,0.308,0.574
		l0.612,1.154l0.567,1.175c0.192,0.391,0.377,0.782,0.548,1.183l0.527,1.192l0.357,0.88l0.133,0.328
		c0.062,0.15,0.123,0.299,0.181,0.45c0.1,0.252,0.196,0.508,0.292,0.763C64.663,347.812,64.77,348.094,64.876,348.373z"/>
	<path fill="#D8C3ED" d="M66.782,348.414c-0.156-0.004-0.31-0.008-0.465-0.012c-0.113-0.002-0.229-0.006-0.342-0.008
		c-0.366-0.008-0.731-0.016-1.098-0.021c-0.098,0-0.198-0.004-0.296-0.004c-0.102-0.533-0.206-1.066-0.314-1.599
		c-0.096-0.485-0.196-0.97-0.296-1.452c-0.05-0.242-0.102-0.486-0.154-0.729c-0.173-0.812-0.356-1.621-0.546-2.428
		c-0.092-0.406-0.198-0.804-0.296-1.207c-0.096-0.406-0.208-0.797-0.323-1.188c-0.209-0.786-0.494-1.557-0.76-2.336
		c-0.298-0.768-0.586-1.543-0.919-2.301c-0.313-0.768-0.669-1.518-1.012-2.275c-0.361-0.748-0.713-1.5-1.096-2.24
		c-0.75-1.486-1.541-2.955-2.368-4.406c-0.833-1.445-1.666-2.896-2.602-4.279c1.037,1.314,1.975,2.701,2.914,4.088
		c0.935,1.391,1.835,2.804,2.698,4.242c0.438,0.715,0.85,1.448,1.271,2.178c0.4,0.74,0.815,1.471,1.19,2.227
		c0.396,0.746,0.748,1.516,1.111,2.281c0.333,0.782,0.685,1.555,0.967,2.367c0.048,0.129,0.094,0.256,0.141,0.383v0.002
		c0.102,0.274,0.198,0.548,0.283,0.82c0.131,0.4,0.267,0.801,0.39,1.205c0.067,0.211,0.133,0.422,0.198,0.637
		c0.185,0.592,0.363,1.186,0.537,1.779c0.223,0.77,0.442,1.539,0.656,2.311C66.432,347.104,66.611,347.759,66.782,348.414z"/>
	<path fill="#D8C3ED" d="M71.049,300.748c-0.34,1.835-0.669,3.67-0.99,5.508c-0.521,2.985-1.016,5.975-1.483,8.967
		c-0.756,4.832-1.442,9.682-1.935,14.527c-0.237,2.43-0.402,4.831-0.446,7.268c-0.01,0.402-0.018,0.807-0.021,1.208
		c-0.03,2.028-0.015,4.063,0.023,6.095c0.015,0.709,0.033,1.419,0.054,2.129c0.018,0.652,0.039,1.302,0.065,1.953
		c-0.113-0.002-0.229-0.006-0.342-0.008c-0.366-0.008-0.731-0.016-1.098-0.021c-0.098,0-0.198-0.004-0.296-0.004
		c-0.224-0.002-0.446-0.006-0.669-0.008c0.009-0.789,0.023-1.58,0.042-2.369c0.004-0.226,0.01-0.449,0.018-0.674
		c0.005-0.336,0.015-0.674,0.025-1.01c0.048-1.537,0.109-3.075,0.192-4.611v-0.002c0.035-0.646,0.073-1.293,0.117-1.939
		c0.018-0.276,0.037-0.552,0.058-0.826c0.042-0.607,0.09-1.218,0.148-1.829v-0.006c0.081-0.887,0.177-1.774,0.287-2.661
		c0.016-0.125,0.031-0.251,0.046-0.373c0-0.003,0-0.003,0-0.003c0.104-0.835,0.219-1.663,0.342-2.488
		c0.74-4.864,1.669-9.679,2.667-14.478c0.614-2.939,1.248-5.871,1.91-8.799C70.182,304.443,70.611,302.595,71.049,300.748z"/>
	<path fill="#D8C3ED" d="M74.276,315.42c-1.19,3.508-2.223,7.066-3.092,10.652c-0.433,1.795-0.813,3.6-1.108,5.41
		c-0.302,1.811-0.473,3.623-0.59,5.459c-0.209,3.673-0.268,7.363-0.265,11.056v0.487c-0.289-0.01-0.577-0.02-0.866-0.027
		c-0.456-0.014-0.912-0.027-1.368-0.039c0.01-0.166,0.02-0.328,0.031-0.494c0.096-1.453,0.202-2.906,0.321-4.359
		c0.187-2.254,0.408-4.51,0.687-6.762c0.239-1.851,0.541-3.712,0.972-5.533c0.421-1.823,0.925-3.615,1.479-5.391
		C71.588,322.33,72.857,318.844,74.276,315.42z"/>
	<path fill="#D8C3ED" d="M79.284,329.328c-0.821,1.049-1.523,2.184-2.2,3.324c-0.671,1.146-1.291,2.319-1.854,3.516
		c-0.563,1.194-1.085,2.408-1.525,3.646c-0.236,0.613-0.427,1.242-0.629,1.865c-0.1,0.312-0.179,0.629-0.269,0.944
		c-0.086,0.315-0.181,0.625-0.252,0.948c-0.404,1.65-0.727,3.319-0.981,4.998c-0.658-0.027-1.317-0.053-1.979-0.072
		c0.435-1.805,0.946-3.592,1.554-5.346c0.102-0.32,0.23-0.639,0.35-0.955c0.123-0.317,0.234-0.639,0.367-0.951
		c0.269-0.622,0.523-1.25,0.821-1.855c0.569-1.225,1.211-2.411,1.894-3.568c0.681-1.158,1.416-2.281,2.194-3.368
		C77.561,331.369,78.369,330.301,79.284,329.328z"/>
	<path fill="#936BC1" d="M81.359,336.363c-1.409,1.614-2.698,3.328-3.852,5.113c-1.16,1.778-2.166,3.651-2.916,5.584
		c-0.098,0.24-0.169,0.486-0.256,0.729c-0.081,0.246-0.167,0.482-0.238,0.74c-0.016,0.053-0.031,0.102-0.046,0.154
		c-0.589-0.029-1.181-0.059-1.773-0.082c0.088-0.213,0.177-0.424,0.267-0.635c0.1-0.25,0.225-0.504,0.344-0.756
		c0.121-0.252,0.231-0.508,0.362-0.752c1.033-1.96,2.285-3.75,3.664-5.418c0.685-0.836,1.402-1.641,2.145-2.422
		C79.802,337.841,80.562,337.082,81.359,336.363z"/>
	<path fill="#D8C3ED" d="M79.894,343.141c-1.056,1.074-1.912,2.307-2.662,3.584c-0.367,0.642-0.717,1.292-1.023,1.963
		c-0.018,0.035-0.035,0.07-0.05,0.107c-0.429-0.023-0.859-0.047-1.292-0.068c0.125-0.199,0.252-0.395,0.387-0.586
		c0.427-0.638,0.896-1.245,1.377-1.838C77.607,345.13,78.677,344.031,79.894,343.141z"/>
	<path fill="#EA9315" d="M69.011,283.238L69.011,283.238c-0.578-0.107-0.96-0.662-0.854-1.24l1.607-8.732
		c0.106-0.578,0.661-0.96,1.239-0.854l0,0c0.578,0.106,0.96,0.661,0.854,1.239l-1.607,8.732
		C70.144,282.961,69.589,283.344,69.011,283.238z"/>
	<g>
		<path fill="#936BC1" d="M64.575,336.137c-1.333-23.299-10.838-39.79-10.934-39.953l0.507-0.297
			c0.097,0.164,9.671,16.77,11.013,40.217L64.575,336.137z"/>
	</g>
	<path fill="#EA9315" d="M53.82,296.199L53.82,296.199c-0.537,0.238-1.166-0.005-1.404-0.542l-3.593-8.12
		c-0.238-0.537,0.004-1.165,0.542-1.402l0,0c0.537-0.238,1.166,0.004,1.403,0.541l3.594,8.12
		C54.6,295.333,54.357,295.961,53.82,296.199z"/>
	<path fill="#936BC1" d="M68.355,348.457c-0.456-0.014-0.912-0.027-1.368-0.039c-0.069-0.002-0.136-0.004-0.206-0.004
		c-0.156-0.004-0.31-0.008-0.465-0.012c-0.113-0.002-0.229-0.006-0.342-0.008c-0.102-0.705-0.208-1.412-0.313-2.119
		c-0.196-1.305-0.395-2.611-0.602-3.916c-0.135-0.864-0.273-1.727-0.416-2.588l-0.338-2.016l-0.208-1.227l-0.285-1.621l-0.306-1.607
		c-0.429-2.141-0.904-4.281-1.433-6.408c-0.519-2.129-1.079-4.254-1.664-6.37c-1.162-4.22-2.412-8.419-3.746-12.593
		c-0.004-0.016-0.01-0.029-0.014-0.045c0.006,0.016,0.012,0.029,0.018,0.045c1.563,4.094,3.05,8.22,4.444,12.379
		c0.704,2.088,1.383,4.182,2.025,6.293c0.277,0.902,0.546,1.805,0.806,2.714v0.002c0.004,0.013,0.007,0.028,0.011,0.044v0.002
		c0.122,0.424,0.241,0.847,0.358,1.271c0.166,0.598,0.327,1.196,0.484,1.799c0.044,0.162,0.085,0.326,0.129,0.49
		c0,0.002,0.002,0.004,0.002,0.006c0.004,0.015,0.008,0.032,0.012,0.047l0.4,1.614l0.375,1.609l0.459,2.025l0.271,1.2
		c0.308,1.379,0.604,2.758,0.894,4.139c0.166,0.775,0.327,1.55,0.489,2.324C68.005,346.745,68.182,347.602,68.355,348.457z"/>
	<g>
		<path fill="#936BC1" d="M402,332.095c-0.203-17.784,4.725-47.331,4.773-47.628l0.58,0.098c-0.051,0.295-4.969,29.793-4.767,47.523
			L402,332.095z"/>
	</g>
	<path fill="#D8C3ED" d="M397.446,349.791c-0.635,0.002-1.271,0.006-1.911,0.014c-0.045-0.07-0.093-0.141-0.139-0.209l-0.428-0.627
		l-0.461-0.605c-0.301-0.412-0.643-0.789-0.969-1.184c-0.686-0.757-1.395-1.504-2.166-2.188c-1.531-1.381-3.204-2.635-5.021-3.66
		c1.929,0.806,3.758,1.865,5.48,3.088c0.867,0.604,1.688,1.283,2.488,1.985c0.385,0.367,0.791,0.72,1.154,1.114l0.561,0.578
		l0.528,0.609C396.867,349.061,397.162,349.422,397.446,349.791z"/>
	<path fill="#936BC1" d="M401.146,349.807c-0.17-0.004-0.338-0.006-0.508-0.006c-0.598-0.006-1.198-0.01-1.803-0.01
		c-0.992-2.104-2.191-4.121-3.494-6.086l-0.322-0.49l-0.339-0.479l-0.679-0.956c-0.458-0.637-0.946-1.249-1.42-1.874
		c-0.986-1.219-1.994-2.426-3.072-3.57c-1.066-1.158-2.186-2.268-3.35-3.334c-0.287-0.269-0.582-0.531-0.88-0.787
		c-0.296-0.264-0.597-0.518-0.902-0.77c-0.611-0.498-1.218-1.01-1.889-1.43c0.704,0.367,1.351,0.833,2.001,1.283
		c0.324,0.229,0.646,0.461,0.963,0.699c0.319,0.235,0.635,0.478,0.944,0.725c1.252,0.979,2.466,2.007,3.632,3.094
		c1.176,1.07,2.289,2.211,3.388,3.373c0.528,0.598,1.077,1.182,1.591,1.795l0.77,0.921l0.385,0.462l0.367,0.475
		c0.484,0.639,0.996,1.26,1.445,1.924c0.46,0.659,0.941,1.301,1.369,1.99c0.237,0.352,0.461,0.713,0.678,1.076
		c0.199,0.33,0.395,0.664,0.592,0.996C400.793,349.152,400.971,349.48,401.146,349.807z"/>
	<path fill="#D8C3ED" d="M402.916,349.83c-0.098-0.002-0.198-0.004-0.297-0.004c-0.223-0.004-0.445-0.008-0.669-0.01
		c-0.267-0.006-0.534-0.008-0.804-0.01c-0.17-0.004-0.338-0.006-0.508-0.006c-0.012-0.043-0.025-0.088-0.039-0.133
		c-0.117-0.404-0.238-0.809-0.373-1.207l-0.205-0.629l-0.187-0.574l-0.427-1.191c-0.137-0.398-0.289-0.79-0.446-1.18l-0.468-1.176
		c-0.348-0.764-0.658-1.551-1.046-2.295c-1.489-3.022-3.281-5.939-5.187-8.762c-1.928-2.812-3.983-5.551-6.225-8.139
		c2.42,2.424,4.676,5.016,6.814,7.704c2.125,2.706,4.133,5.503,5.891,8.505l0.331,0.564c0.107,0.189,0.206,0.383,0.308,0.576
		l0.611,1.153l0.568,1.175c0.191,0.391,0.377,0.783,0.547,1.184l0.527,1.191l0.357,0.879l0.133,0.329
		c0.062,0.15,0.123,0.298,0.182,0.45c0.1,0.252,0.195,0.508,0.291,0.764C402.703,349.27,402.811,349.549,402.916,349.83z"/>
	<path fill="#D8C3ED" d="M404.821,349.871c-0.155-0.004-0.31-0.008-0.466-0.012c-0.113-0.002-0.229-0.006-0.342-0.008
		c-0.365-0.008-0.73-0.016-1.098-0.021c-0.098-0.002-0.198-0.004-0.297-0.004c-0.102-0.535-0.205-1.066-0.312-1.6
		c-0.097-0.484-0.197-0.969-0.297-1.452c-0.05-0.242-0.102-0.486-0.154-0.729c-0.172-0.812-0.355-1.622-0.545-2.427
		c-0.094-0.406-0.199-0.805-0.297-1.208c-0.096-0.406-0.207-0.796-0.322-1.187c-0.211-0.787-0.495-1.559-0.76-2.337
		c-0.299-0.768-0.588-1.542-0.92-2.3c-0.313-0.768-0.67-1.518-1.012-2.275c-0.361-0.748-0.713-1.5-1.096-2.24
		c-0.75-1.486-1.541-2.957-2.367-4.406c-0.834-1.446-1.666-2.896-2.603-4.279c1.036,1.313,1.976,2.7,2.913,4.087
		c0.936,1.39,1.836,2.804,2.699,4.242c0.438,0.716,0.85,1.448,1.271,2.177c0.399,0.74,0.815,1.472,1.19,2.228
		c0.396,0.746,0.748,1.516,1.111,2.28c0.333,0.783,0.686,1.557,0.968,2.368c0.048,0.129,0.095,0.256,0.141,0.383v0.001
		c0.102,0.275,0.198,0.549,0.282,0.822c0.131,0.4,0.268,0.8,0.391,1.203c0.067,0.212,0.133,0.424,0.197,0.637
		c0.186,0.593,0.364,1.188,0.537,1.781c0.223,0.77,0.443,1.539,0.656,2.311C404.472,348.559,404.65,349.215,404.821,349.871z"/>
	<path fill="#D8C3ED" d="M409.09,302.205c-0.342,1.834-0.67,3.669-0.991,5.508c-0.521,2.984-1.015,5.973-1.483,8.965
		c-0.756,4.834-1.441,9.682-1.934,14.529c-0.236,2.428-0.402,4.83-0.447,7.268c-0.009,0.401-0.017,0.805-0.021,1.207
		c-0.03,2.029-0.015,4.064,0.022,6.095c0.016,0.71,0.033,1.419,0.055,2.13c0.018,0.65,0.038,1.301,0.064,1.953
		c-0.113-0.002-0.229-0.006-0.342-0.008c-0.365-0.008-0.73-0.016-1.098-0.021c-0.098-0.002-0.198-0.004-0.297-0.004
		c-0.223-0.004-0.445-0.008-0.669-0.01c0.01-0.787,0.022-1.578,0.042-2.369c0.004-0.225,0.01-0.447,0.018-0.673
		c0.006-0.337,0.016-0.673,0.025-1.01c0.048-1.536,0.109-3.075,0.192-4.612v-0.001c0.034-0.646,0.073-1.292,0.117-1.938
		c0.017-0.277,0.036-0.553,0.058-0.827c0.042-0.608,0.09-1.218,0.148-1.829v-0.006c0.08-0.887,0.176-1.775,0.286-2.662
		c0.015-0.125,0.03-0.25,0.046-0.373c0-0.002,0-0.002,0-0.002c0.104-0.834,0.219-1.663,0.343-2.488
		c0.74-4.863,1.669-9.68,2.667-14.478c0.613-2.938,1.248-5.872,1.91-8.798C408.222,305.898,408.65,304.051,409.09,302.205z"/>
	<path fill="#D8C3ED" d="M412.316,316.877c-1.19,3.508-2.223,7.065-3.093,10.652c-0.433,1.795-0.813,3.598-1.107,5.41
		c-0.302,1.81-0.474,3.623-0.591,5.458c-0.209,3.673-0.268,7.364-0.266,11.056v0.486c-0.288-0.01-0.576-0.02-0.865-0.027
		c-0.455-0.012-0.912-0.025-1.367-0.037c0.01-0.166,0.02-0.33,0.031-0.494c0.096-1.454,0.201-2.906,0.32-4.36
		c0.188-2.254,0.408-4.51,0.688-6.762c0.238-1.851,0.54-3.712,0.971-5.533c0.421-1.823,0.925-3.616,1.479-5.391
		C409.628,323.787,410.896,320.3,412.316,316.877z"/>
	<path fill="#D8C3ED" d="M417.324,330.785c-0.821,1.049-1.523,2.184-2.2,3.323c-0.671,1.146-1.29,2.319-1.854,3.516
		c-0.562,1.194-1.084,2.407-1.524,3.646c-0.236,0.613-0.427,1.242-0.629,1.865c-0.101,0.312-0.179,0.629-0.27,0.944
		c-0.087,0.315-0.181,0.625-0.251,0.948c-0.404,1.649-0.729,3.319-0.981,4.999c-0.657-0.027-1.317-0.053-1.979-0.074
		c0.436-1.805,0.947-3.59,1.555-5.344c0.102-0.322,0.23-0.639,0.35-0.956c0.123-0.317,0.234-0.639,0.367-0.95
		c0.27-0.623,0.523-1.25,0.822-1.855c0.568-1.226,1.211-2.412,1.894-3.57c0.681-1.157,1.415-2.28,2.194-3.367
		C415.602,332.826,416.408,331.756,417.324,330.785z"/>
	<path fill="#936BC1" d="M419.399,337.82c-1.409,1.613-2.698,3.326-3.853,5.111c-1.159,1.779-2.166,3.652-2.915,5.586
		c-0.099,0.24-0.169,0.486-0.256,0.729c-0.081,0.246-0.167,0.482-0.239,0.74c-0.015,0.053-0.03,0.102-0.045,0.154
		c-0.589-0.029-1.182-0.059-1.773-0.084c0.088-0.211,0.177-0.422,0.268-0.635c0.1-0.25,0.225-0.504,0.344-0.756
		c0.121-0.252,0.23-0.508,0.361-0.751c1.033-1.96,2.285-3.75,3.664-5.417c0.684-0.838,1.402-1.641,2.145-2.422
		C417.842,339.297,418.602,338.537,419.399,337.82z"/>
	<path fill="#D8C3ED" d="M417.934,344.598c-1.056,1.072-1.912,2.306-2.662,3.582c-0.367,0.643-0.717,1.293-1.022,1.965
		c-0.017,0.033-0.034,0.07-0.05,0.107c-0.43-0.023-0.859-0.047-1.293-0.07c0.125-0.197,0.252-0.395,0.387-0.584
		c0.428-0.639,0.896-1.246,1.377-1.838C415.647,346.586,416.717,345.488,417.934,344.598z"/>
	<path fill="#EA9315" d="M407.051,284.693L407.051,284.693c-0.578-0.105-0.961-0.66-0.854-1.238l1.606-8.732
		c0.106-0.578,0.661-0.961,1.239-0.854l0,0c0.578,0.105,0.96,0.66,0.854,1.238l-1.607,8.732
		C408.184,284.418,407.629,284.801,407.051,284.693z"/>
	<g>
		<path fill="#936BC1" d="M402.615,337.593c-1.334-23.299-10.838-39.79-10.934-39.954l0.506-0.296
			c0.097,0.165,9.672,16.77,11.014,40.216L402.615,337.593z"/>
	</g>
	<path fill="#EA9315" d="M391.859,297.656L391.859,297.656c-0.537,0.237-1.166-0.006-1.403-0.543l-3.594-8.119
		c-0.237-0.537,0.005-1.166,0.542-1.404l0,0c0.537-0.237,1.166,0.006,1.404,0.543l3.594,8.119
		C392.641,296.789,392.396,297.418,391.859,297.656z"/>
	<path fill="#936BC1" d="M406.395,349.912c-0.455-0.012-0.912-0.025-1.367-0.037c-0.069-0.002-0.137-0.004-0.206-0.004
		c-0.155-0.004-0.31-0.008-0.466-0.012c-0.113-0.002-0.229-0.006-0.342-0.008c-0.102-0.705-0.207-1.414-0.312-2.119
		c-0.197-1.307-0.395-2.611-0.604-3.918c-0.134-0.863-0.272-1.725-0.414-2.586l-0.339-2.016l-0.208-1.227l-0.285-1.622l-0.305-1.608
		c-0.43-2.14-0.904-4.28-1.434-6.407c-0.52-2.129-1.078-4.255-1.663-6.37c-1.161-4.219-2.411-8.42-3.747-12.593
		c-0.004-0.015-0.01-0.028-0.013-0.044c0.005,0.016,0.011,0.029,0.017,0.044c1.564,4.095,3.051,8.22,4.445,12.38
		c0.703,2.086,1.383,4.181,2.025,6.293c0.276,0.901,0.546,1.803,0.805,2.713v0.002c0.004,0.014,0.008,0.029,0.012,0.045v0.002
		c0.121,0.422,0.24,0.846,0.357,1.271c0.166,0.598,0.328,1.195,0.485,1.797c0.044,0.164,0.085,0.328,0.129,0.491
		c0,0.001,0.002,0.003,0.002,0.005c0.003,0.016,0.007,0.033,0.012,0.049l0.399,1.613l0.375,1.609l0.46,2.025l0.271,1.2
		c0.308,1.379,0.604,2.758,0.894,4.139c0.166,0.774,0.328,1.55,0.488,2.325C406.045,348.201,406.222,349.057,406.395,349.912z"/>
	<polygon fill="#8AB6C1" points="96.005,302.679 101.779,312.051 95.999,317.83 	"/>
	<polygon fill="#8AB6C1" points="144.984,302.696 144.978,317.848 139.622,312.635 	"/>
	<path fill="#E6F4FC" d="M144.984,302.696l-5.362,9.938l-2.268,4.205c-0.193,0.361-0.42,0.697-0.679,1.006
		c-1.137,1.363-2.837,2.178-4.655,2.177l-21.954-0.008c-1.812-0.001-3.511-0.812-4.65-2.181c-0.184-0.219-0.352-0.455-0.504-0.701
		l-3.133-5.082l-5.774-9.372L144.984,302.696z"/>
	<path fill="#AAD6E2" d="M144.978,317.848l-0.007,19.51l-48.979-0.018l0.007-19.51l5.78-5.779l3.133,5.082
		c0.152,0.246,0.321,0.482,0.504,0.701c1.139,1.369,2.838,2.18,4.65,2.181l21.954,0.008c1.818,0.001,3.518-0.813,4.655-2.177
		c0.259-0.309,0.486-0.645,0.679-1.006l2.268-4.205L144.978,317.848z"/>
	<rect x="95.992" y="334.954" fill="#8AB6C1" width="2.388" height="2.387"/>
	<rect x="142.583" y="334.969" fill="#8AB6C1" width="2.388" height="2.389"/>
	
		<rect x="136.483" y="329.864" fill="none" stroke="#000000" stroke-width="0.75" stroke-miterlimit="10" width="5.118" height="3.029"/>
	<path fill="#189657" d="M120.697,323.702L120.697,323.702c-0.802-0.001-1.453-0.651-1.453-1.453l0.002-4.462
		c0-0.803,0.651-1.453,1.453-1.453l0,0c0.802,0.001,1.453,0.651,1.452,1.453l-0.001,4.463
		C122.149,323.053,121.499,323.703,120.697,323.702z"/>
	<path fill="#AAD6E2" d="M131.606,302.691l-2.69-0.001c-1.207-3.49-4.521-5.997-8.422-5.999s-7.217,2.504-8.423,5.993l-2.689-0.001
		c1.294-4.928,5.781-8.562,11.114-8.561C125.832,294.125,130.316,297.763,131.606,302.691z"/>
	<path fill="#340A70" d="M136.104,327.697c0,0-0.466,5.436-3.058,9.223c-2.591,3.788-7.974,5.283-6.778,6.479
		c1.196,1.196,10.976,1.296,12.614-1.396c1.639-2.691,6.922-10.566,5.626-13.357s-4.335-3.09-4.335-3.09h-2.642L136.104,327.697z"/>
	<path fill="#340A70" d="M141.705,340.824c0,0-2.678,2.575-2.778,5.266c-0.1,2.691,0,3.789,0,3.789s24.421,4.385,24.321,2.291
		c-0.1-2.092-17.739-11.346-17.739-11.346H141.705z"/>
	<path fill="#ED1476" d="M151.985,243.424c0,0-0.598,7.375-1.794,16.745s-1.196,83.529-6.379,83.928
		c-5.183,0.399-6.778-55.42-8.373-61.401c-1.595-5.98-3.588-29.105-3.389-32.494s0.199-3.389,0.199-3.389L151.985,243.424z"/>
	<path fill="#ED1476" d="M117.297,250.4c0,0,0,14.951-1.794,23.724c-1.794,8.771-2.791,12.56,1.794,21.53
		c4.585,8.971,18.843,36.917,22.38,33.908c3.536-3.009-13.01-39.889-11.615-43.677s5.582-17.477,6.778-24.653l-2.805-18.873
		L117.297,250.4z"/>
	<path fill="#EADADE" d="M168.029,188.479c0,0,0.469-0.11,1.1-0.742s0.731-1.13,1.662-1.196c0.93-0.066,2.957-1.728,2.824-4.386
		c-0.133-2.658-0.697-3.721-1.844-3.721c-1.146,0-3.995,1.246-3.742,0.349c0.253-0.897-0.345-2.991-0.793-3.29
		c-0.449-0.299-0.848,0-0.848,0s-0.05,2.093-0.498,3.189c-0.449,1.097-1.545,1.346-1.595,2.442c-0.05,1.097-0.198,2.638-0.896,3.139
		l0.547,3.041L168.029,188.479z"/>
	<path fill="#F4E9EB" d="M168.51,179.103c0,0-1.324,0.528-0.576,3.519c0.747,2.99,1.988,4.271,2.857,3.92
		c0.869-0.35,3.97-2.076,3.223-5.516C173.266,177.587,172.525,177.756,168.51,179.103z"/>
	<path fill="#EADADE" d="M94.166,212.885c0,0-0.791,0.112-1.787-0.561c-0.997-0.673-4.112-1.246-5.482-1.172
		c-1.371,0.076-3.115-0.822-0.972-3.438c2.143-2.617,3.638-3.115,6.055-2.293c2.417,0.822,4.33,1.874,5.118,3.553l-0.458,2.652
		L94.166,212.885z"/>
	<path fill="#EADADE" d="M94.596,206.543c0,0,0-1.67,0.474-2.019c0.473-0.349,1.071-0.673,0.947,0s0.37,3.393,0.37,3.393
		l-1.491,0.345L94.596,206.543z"/>
	<path fill="#FFFFFF" d="M122.215,193.685c0,0-8.805,5.382-10.998,8.073s-4.984,16.746-4.984,16.746s-6.878-8.705-8.672-9.701
		c0,0-1.595,0.465-2.459,1.66c-0.864,1.197-1.129,3.522-1.129,3.522s12.161,19.37,16.247,15.981
		c4.087-3.389,3.987-8.174,3.987-8.174s0.149,2.643,0.797,3.938c0.648,1.296,1.196,2.193,1.196,2.193s-2.492,12.11,1.096,22.477
		c0,0,9.37,5.184,18.141,2.592c8.772-2.592,16.546-9.568,16.546-9.568s0.399-11.064-1.794-17.643
		c-2.193-6.58-4.785-11.562-4.785-11.562s0.299-1.446,0.149-3.34c-0.149-1.895-0.697-4.236-0.697-4.236s7.326,10.466,10.217,7.576
		c2.891-2.892,13.356-24.92,13.356-24.92s-1.295-2.891-2.592-3.838c-1.295-0.947-3.239-1.445-3.239-1.445
		s-7.692,18.208-9.486,16.348c-1.794-1.861-8.439-11.828-13.091-12.094c-4.652-0.267-12.599,2.425-12.599,2.425L122.215,193.685z"/>
	<path fill="#EADADE" d="M116.397,185.351c0,0,0.109,2.072,1.018,4.181c0.909,2.107,2.181,3.453,2.181,3.453
		s4.362-2.072,6.034-4.762l-0.582-3.199l-3.708-2.98l-2.908,0.727L116.397,185.351z"/>
	<path fill="#B2B2B2" d="M124.43,199.147c0,0-0.72,0.235-1.601,1.05c-0.762,0.703-1.633,2.159-1.633,2.159s0.079-7.171,1.317-8.843
		c0,0,1.313,0.246,1.413,0.271c0.1,0.024,1.096,2.417,1.096,2.417L124.43,199.147z"/>
	<path fill="#B2B2B2" d="M125.997,198.928c0,0,0.895-0.508,2.713-0.185c1.819,0.323,2.791,1.222,2.791,1.222
		s-1.853-7.586-5.254-8.595l-0.012,1.982L125.997,198.928z"/>
	<path fill="#94B7E0" d="M127.811,186.501c0.024-0.193,0.029-0.378,0.005-0.546c-0.244-1.748-2.279-2.279-2.279-2.279
		s0.293-4.216-1.937-5.041c-2.23-0.824-5.333,1.018-5.333,1.018s-7.3-6.287-9.475-3.72c0.566-6.078,10.056,2.085,10.056,2.085
		s3.099-1.842,5.329-1.018s1.942,5.041,1.942,5.041s2.036,0.536,2.274,2.278C128.476,184.941,128.228,185.736,127.811,186.501z"/>
	<path fill="#0D1D33" d="M127.811,186.501c-0.74,1.38-2.017,2.647-2.766,2.522c-1.172-0.193-0.576-2.91-1.644-3.297
		c-0.646-0.233-0.651,0.734-0.621,1.623c0.02,0.582,0.06,1.133-0.055,1.287c-0.104,0.134-0.193-0.061-0.526-0.433
		c-0.605-0.685-2.021-1.981-5.8-2.854c-5.82-1.347-7.637-8.686-7.637-8.686c-0.005-0.263,0.005-0.506,0.029-0.73
		c2.175-2.567,9.475,3.72,9.475,3.72s3.104-1.842,5.333-1.018c2.229,0.824,1.937,5.041,1.937,5.041s2.036,0.531,2.279,2.279
		C127.84,186.123,127.835,186.308,127.811,186.501z"/>
	<path fill="#EADADE" d="M125.042,189.023c0,0,0.959,2.217,1.578,2.834c0.618,0.618,0.429,7.271-1.316,7.634
		c-1.745,0.364-2.084-4.762-2.484-5.452c-0.4-0.691-1.624-2.764-1.624-2.764l1.381-2.244L125.042,189.023z"/>
	<polygon fill="#189657" points="124.409,201.121 126.801,231.462 131.202,240.134 132.947,230.715 126.685,200.67 	"/>
	<path fill="#5B16BF" d="M124.43,199.147c0,0-0.369,0.534-0.362,1.349c0.007,0.814,1.569,1.246,1.569,1.246s1.329-0.848,1.146-1.678
		c-0.183-0.832-0.786-1.137-0.786-1.137l-0.659-0.293L124.43,199.147z"/>
	<path fill="#E0E0E0" d="M113.999,219.705c0,0-0.619-1.737-1.115-5.545c-0.497-3.807,0-7.613,0-7.613L113.999,219.705z"/>
	<path fill="#E0E0E0" d="M144.25,204.133l-2.648-11.656c0,0,0,5.351,0.579,7.488C142.761,202.102,144.25,204.133,144.25,204.133z"/>
	<path fill="#E0E0E0" d="M144.25,214.967c0,0-1.324,2.174-3,3.291c-1.676,1.117-3.6,1.738-3.6,1.738L144.25,214.967z"/>
	<path fill="#E0E0E0" d="M117.062,228.148c0,0,1.904,0.578,3.435,0.454c1.531-0.124,3.435-1.034,3.435-1.034L117.062,228.148z"/>
	<path fill="#E0E0E0" d="M154.224,204.975c0,0,0.083-1.242,0-2.359c-0.083-1.117-0.704-1.779-0.704-1.779L154.224,204.975z"/>
	<path fill="#E0E0E0" d="M108.072,223.037c0,0-0.093-1.086-0.465-2.049c-0.373-0.962-1.055-1.831-1.055-1.831L108.072,223.037z"/>
	<path fill="#BC1166" d="M133.429,266.178c0,0-1.318-5.38-1.393-7.325c-0.076-1.944,0.172-4.097,0.172-4.097L133.429,266.178z"/>
</g>
</svg>
