<?xml version="1.0" encoding="utf-8"?>
<!-- Generator: Adobe Illustrator 15.0.0, SVG Export Plug-In . SVG Version: 6.00 Build 0)  -->
<!DOCTYPE svg PUBLIC "-//W3C//DTD SVG 1.1//EN" "http://www.w3.org/Graphics/SVG/1.1/DTD/svg11.dtd">
<svg version="1.1" xmlns="http://www.w3.org/2000/svg" xmlns:xlink="http://www.w3.org/1999/xlink" x="0px" y="0px" width="270px"
	 height="270px" viewBox="0 0 270 270" enable-background="new 0 0 270 270" xml:space="preserve">
<g id="Background">
</g>
<g id="Circles_on_background">
</g>
<g id="Lines">
	<g>
		<path fill="#FFFFFF" d="M56.055,266.51c-2.052,0-3.978-0.798-5.428-2.248c-2.066-2.062-5.427-2.062-7.49,0
			c-2.996,2.992-7.868,2.992-10.862,0.001c-0.466-0.465-0.466-1.22,0-1.687c0.464-0.466,1.22-0.465,1.686,0
			c2.065,2.062,5.425,2.062,7.49,0c2.992-2.992,7.864-2.992,10.861,0c1,1,2.329,1.55,3.743,1.55c1.415,0,2.744-0.55,3.743-1.55
			c1.45-1.45,3.377-2.248,5.429-2.248s3.979,0.798,5.429,2.248c0.465,0.467,0.465,1.222,0,1.686c-0.465,0.466-1.221,0.466-1.686,0
			c-0.999-1-2.328-1.55-3.744-1.55s-2.744,0.55-3.744,1.55C60.035,265.712,58.106,266.51,56.055,266.51z"/>
	</g>
	<g>
		<path fill="#242D3C" d="M227.4,44.049c-2.052,0-3.979-0.799-5.43-2.249c-2.067-2.062-5.427-2.062-7.489,0
			c-2.995,2.993-7.867,2.993-10.862,0c-0.465-0.465-0.465-1.221,0-1.686c0.467-0.466,1.222-0.466,1.687-0.001
			c2.063,2.064,5.425,2.064,7.491,0c2.988-2.991,7.864-2.991,10.859,0c0.999,1.001,2.328,1.551,3.744,1.551
			c1.413,0,2.742-0.55,3.74-1.549c1.45-1.45,3.379-2.249,5.431-2.249s3.981,0.799,5.431,2.249c0.465,0.465,0.465,1.22,0,1.686
			c-0.467,0.464-1.223,0.464-1.688,0c-1-1-2.328-1.55-3.743-1.55c-1.414,0-2.743,0.55-3.744,1.55
			C231.378,43.25,229.451,44.049,227.4,44.049z"/>
	</g>
	<g>
		<path fill="#242D3C" d="M268.809,161.167h-25.586c-0.658,0-1.192-0.534-1.192-1.192s0.534-1.192,1.192-1.192h25.586
			c0.658,0,1.191,0.534,1.191,1.192S269.467,161.167,268.809,161.167z"/>
	</g>
	<g>
		<path fill="#FFFFFF" d="M75.445,42.149H49.86c-0.659,0-1.192-0.534-1.192-1.192c0-0.657,0.534-1.192,1.192-1.192h25.585
			c0.659,0,1.193,0.535,1.193,1.192C76.639,41.615,76.104,42.149,75.445,42.149z"/>
	</g>
	<g>
		<path fill="#FFFFFF" d="M235.948,171.98H222.81c-0.657,0-1.192-0.534-1.192-1.193s0.535-1.191,1.192-1.191h13.139
			c0.657,0,1.192,0.532,1.192,1.191S236.605,171.98,235.948,171.98z"/>
	</g>
	<g>
		<path fill="#242D3C" d="M29.417,143.154h-5.561c-0.658,0-1.191-0.534-1.191-1.191c0-0.659,0.533-1.193,1.191-1.193h5.561
			c0.658,0,1.192,0.534,1.192,1.193C30.609,142.62,30.075,143.154,29.417,143.154z"/>
	</g>
	<g>
		<path fill="#242D3C" d="M41.831,143.154h-5.56c-0.658,0-1.192-0.534-1.192-1.191c0-0.659,0.534-1.193,1.192-1.193h5.56
			c0.659,0,1.192,0.534,1.192,1.193C43.023,142.62,42.49,143.154,41.831,143.154z"/>
	</g>
	<g>
		<path fill="#242D3C" d="M54.246,143.154h-5.561c-0.658,0-1.191-0.534-1.191-1.191c0-0.659,0.534-1.193,1.191-1.193h5.561
			c0.658,0,1.192,0.534,1.192,1.193C55.438,142.62,54.904,143.154,54.246,143.154z"/>
	</g>
	<g>
		<path fill="#FFFFFF" d="M220.979,213.033h-5.559c-0.658,0-1.191-0.534-1.191-1.192c0-0.656,0.533-1.191,1.191-1.191h5.559
			c0.66,0,1.195,0.535,1.195,1.191C222.174,212.499,221.639,213.033,220.979,213.033z"/>
	</g>
	<g>
		<path fill="#FFFFFF" d="M233.396,213.033h-5.562c-0.658,0-1.191-0.534-1.191-1.192c0-0.656,0.533-1.191,1.191-1.191h5.562
			c0.656,0,1.191,0.535,1.191,1.191C234.587,212.499,234.052,213.033,233.396,213.033z"/>
	</g>
	<g>
		<path fill="#FFFFFF" d="M245.81,213.033h-5.562c-0.658,0-1.191-0.534-1.191-1.192c0-0.656,0.533-1.191,1.191-1.191h5.562
			c0.657,0,1.192,0.535,1.192,1.191C247.002,212.499,246.467,213.033,245.81,213.033z"/>
	</g>
	<g>
		<path fill="#242D3C" d="M52.047,56.652H26.056c-0.659,0-1.192-0.534-1.192-1.192c0-0.659,0.534-1.192,1.192-1.192h25.991
			c0.658,0,1.191,0.533,1.191,1.192C53.238,56.118,52.705,56.652,52.047,56.652z"/>
	</g>
	<g>
		<path fill="#FFFFFF" d="M230.614,125.214c-0.656,0-1.191-0.534-1.191-1.192c0-3.88-3.156-7.036-7.036-7.036
			c-0.656,0-1.191-0.533-1.191-1.192c0-0.659,0.535-1.192,1.191-1.192c3.88,0,7.036-3.155,7.036-7.034
			c0-0.657,0.535-1.192,1.191-1.192c0.658,0,1.192,0.535,1.192,1.192c0,3.879,3.156,7.034,7.034,7.034
			c0.658,0,1.192,0.533,1.192,1.192c0,0.659-0.534,1.192-1.192,1.192c-3.878,0-7.034,3.156-7.034,7.036
			C231.807,124.68,231.272,125.214,230.614,125.214z M226.973,115.794c1.524,0.854,2.79,2.118,3.642,3.644
			c0.854-1.526,2.119-2.79,3.646-3.644c-1.526-0.853-2.792-2.118-3.646-3.644C229.763,113.676,228.497,114.941,226.973,115.794z"/>
	</g>
	<g>
		<path fill="#242D3C" d="M39.327,224.205c-0.659,0-1.192-0.533-1.192-1.192c0-3.88-3.156-7.034-7.035-7.034
			c-0.658,0-1.192-0.534-1.192-1.192c0-0.659,0.534-1.191,1.192-1.191c3.879,0,7.035-3.157,7.035-7.035
			c0-0.659,0.534-1.191,1.192-1.191s1.192,0.532,1.192,1.191c0,3.878,3.156,7.035,7.035,7.035c0.658,0,1.192,0.532,1.192,1.191
			c0,0.658-0.534,1.192-1.192,1.192c-3.879,0-7.035,3.154-7.035,7.034C40.519,223.672,39.985,224.205,39.327,224.205z
			 M35.683,214.786c1.525,0.852,2.79,2.117,3.644,3.644c0.854-1.526,2.119-2.792,3.644-3.644c-1.524-0.854-2.79-2.118-3.644-3.644
			C38.473,212.668,37.208,213.933,35.683,214.786z"/>
	</g>
	<g>
		<g>
			<path fill="#FFFFFF" d="M6.408,123.882c-0.659,0-1.192-0.534-1.192-1.192v-2.631c0-0.659,0.534-1.192,1.192-1.192
				c0.658,0,1.192,0.533,1.192,1.192v2.631C7.6,123.348,7.066,123.882,6.408,123.882z"/>
		</g>
		<g>
			<path fill="#FFFFFF" d="M3.824,126.465H1.192c-0.658,0-1.192-0.534-1.192-1.192s0.534-1.192,1.192-1.192h2.631
				c0.659,0,1.193,0.533,1.193,1.192S4.482,126.465,3.824,126.465z"/>
		</g>
		<g>
			<path fill="#FFFFFF" d="M6.408,131.68c-0.659,0-1.192-0.535-1.192-1.193v-2.631c0-0.658,0.534-1.192,1.192-1.192
				c0.658,0,1.192,0.534,1.192,1.192v2.631C7.6,131.145,7.066,131.68,6.408,131.68z"/>
		</g>
		<g>
			<path fill="#FFFFFF" d="M11.623,126.465H8.991c-0.658,0-1.192-0.534-1.192-1.192s0.534-1.192,1.192-1.192h2.632
				c0.658,0,1.192,0.533,1.192,1.192S12.281,126.465,11.623,126.465z"/>
		</g>
	</g>
	<g>
		<g>
			<path fill="#242D3C" d="M174.729,16.542c-0.657,0-1.192-0.534-1.192-1.192V1.192c0-0.658,0.535-1.192,1.192-1.192
				c0.658,0,1.192,0.534,1.192,1.192v14.158C175.922,16.008,175.388,16.542,174.729,16.542z"/>
		</g>
		<g>
			<path fill="#242D3C" d="M181.98,9.635h-14.501c-0.659,0-1.193-0.535-1.193-1.192c0-0.658,0.534-1.192,1.193-1.192h14.501
				c0.658,0,1.192,0.534,1.192,1.192C183.173,9.1,182.639,9.635,181.98,9.635z"/>
		</g>
	</g>
	<g>
		<path fill="#10191F" d="M260.346,240.201c-3.045,0-5.521-2.476-5.521-5.521c0-3.045,2.477-5.523,5.521-5.523
			c3.046,0,5.524,2.479,5.524,5.523C265.87,237.726,263.392,240.201,260.346,240.201z M260.346,231.541
			c-1.73,0-3.139,1.408-3.139,3.139c0,1.729,1.408,3.138,3.139,3.138s3.14-1.408,3.14-3.138
			C263.485,232.949,262.076,231.541,260.346,231.541z"/>
	</g>
	<rect x="64.702" y="52.114" fill="#17C5CC" width="143.762" height="202.154"/>
	<rect x="83.607" y="52.114" fill="#05B1B8" width="117.708" height="194.245"/>
	<rect x="77.729" y="51.497" fill="#FFFFFF" width="117.709" height="188.982"/>
	<rect x="105.571" y="40.158" fill="#C1C0BF" width="61.797" height="30.605"/>
	<rect x="118.349" y="31.688" fill="#E8E8E8" width="36.466" height="26.579"/>
	<g>
		<rect x="129.563" y="43.667" fill="#404D60" width="14.037" height="2.385"/>
	</g>
	<g>
		<g>
			<path fill="#2AEAEA" d="M95.292,221.39c-0.305,0-0.609-0.117-0.843-0.349c-0.466-0.467-0.466-1.22,0-1.687l16.221-16.221
				c0.447-0.448,1.238-0.448,1.686,0l13.776,13.774l33.376-33.376c0.467-0.467,1.221-0.467,1.688,0c0.464,0.465,0.464,1.219,0,1.685
				l-34.221,34.221c-0.466,0.466-1.221,0.466-1.686,0l-13.776-13.777l-15.377,15.381C95.903,221.272,95.597,221.39,95.292,221.39z"
				/>
		</g>
		<g>
			<path fill="#2AEAEA" d="M164.557,187.309c-3.937,0-7.14-3.204-7.14-7.14c0-3.937,3.203-7.139,7.14-7.139s7.14,3.202,7.14,7.139
				C171.696,184.104,168.493,187.309,164.557,187.309z M164.557,175.415c-2.622,0-4.755,2.133-4.755,4.754s2.133,4.756,4.755,4.756
				c2.621,0,4.754-2.135,4.754-4.756S167.178,175.415,164.557,175.415z"/>
		</g>
		<g>
			<path fill="#2AEAEA" d="M91.086,231.541c-3.936,0-7.138-3.205-7.138-7.14c0-3.936,3.202-7.14,7.138-7.14
				c3.937,0,7.138,3.204,7.138,7.14C98.224,228.336,95.022,231.541,91.086,231.541z M91.086,219.646
				c-2.621,0-4.753,2.134-4.753,4.756c0,2.621,2.132,4.755,4.753,4.755s4.754-2.134,4.754-4.755
				C95.84,221.779,93.707,219.646,91.086,219.646z"/>
		</g>
		<circle fill="#2AEAEA" cx="111.512" cy="203.976" r="3.588"/>
		<circle fill="#2AEAEA" cx="126.132" cy="218.594" r="3.588"/>
	</g>
	<g>
		<g>
			<path fill="#F15525" d="M152.077,219.565c-0.306,0-0.61-0.116-0.844-0.349l-39.721-39.722l-15.377,15.379
				c-0.465,0.466-1.22,0.466-1.686,0c-0.466-0.467-0.466-1.221,0-1.687l16.221-16.22c0.447-0.448,1.238-0.448,1.686,0l39.722,39.722
				l7.432-7.434c0.466-0.465,1.221-0.465,1.687,0c0.464,0.468,0.464,1.222,0,1.687l-8.276,8.274
				C152.688,219.449,152.381,219.565,152.077,219.565z"/>
		</g>
		<g>
			<path fill="#F15525" d="M164.557,213.033c-3.935,0-7.14-3.202-7.14-7.138c0-3.938,3.205-7.139,7.14-7.139
				c3.937,0,7.14,3.201,7.14,7.139C171.696,209.831,168.493,213.033,164.557,213.033z M164.557,201.141
				c-2.622,0-4.754,2.134-4.754,4.755s2.132,4.754,4.754,4.754c2.621,0,4.754-2.133,4.754-4.754S167.178,201.141,164.557,201.141z"
				/>
		</g>
		<g>
			<path fill="#F15525" d="M91.086,205.375c-3.936,0-7.138-3.203-7.138-7.141c0-3.935,3.202-7.137,7.138-7.137
				c3.937,0,7.138,3.202,7.138,7.137C98.224,202.172,95.022,205.375,91.086,205.375z M91.086,193.481
				c-2.621,0-4.753,2.132-4.753,4.753c0,2.624,2.132,4.757,4.753,4.757s4.754-2.133,4.754-4.757
				C95.84,195.613,93.707,193.481,91.086,193.481z"/>
		</g>
		<circle fill="#F15525" cx="111.512" cy="177.81" r="3.588"/>
		<circle fill="#F15525" cx="152.077" cy="218.374" r="3.588"/>
	</g>
	<g>
		<rect x="177.729" y="178.977" fill="#242D3C" width="9.176" height="2.384"/>
	</g>
	<g>
		<rect x="177.729" y="204.703" fill="#242D3C" width="9.176" height="2.384"/>
	</g>
	<path fill="#E8E8E8" d="M118.678,84.336c-14.679,0-26.576,11.899-26.576,26.575v8.339c0,1.984-5.55,8.238-6.907,10.719
		c-0.627,1.192,0,2.382,1.192,2.382c1.191,0,5.715,0,5.715,0s0,6.751,0,9.13c0,2.383,1.297,5.163,4.739,5.163
		c3.441,0,13.313,0,13.313,0l-6.88,12.043h41.979v-47.775C145.254,96.235,133.354,84.336,118.678,84.336z"/>
	<circle fill="#111416" cx="98.923" cy="117.115" r="1.133"/>
	<g>
		<circle fill="#FFFFFF" cx="129.782" cy="110.498" r="5.298"/>
		<path fill="#242D3C" d="M122.056,156.02v0.015c0,1.466,1.188,2.652,2.652,2.652h10.146c1.464,0,2.652-1.187,2.652-2.652v-0.015
			v-18.879h-15.451V156.02z"/>
		<g>
			<rect x="128.587" y="142.676" fill="#10191F" width="2.384" height="16.011"/>
		</g>
		<path fill="#FFFFFF" d="M137.507,132.397c0,1.481,1.2,2.679,2.679,2.679c1.482,0,2.683-1.198,2.683-2.679c0,0,0-5.412,0-8.783
			h-5.363L137.507,132.397z"/>
		<path fill="#FFFFFF" d="M116.694,123.614c0,3.371,0,8.783,0,8.783c0,1.481,1.201,2.679,2.681,2.679
			c1.48,0,2.681-1.198,2.681-2.679v-8.783H116.694z"/>
		<path fill="#F15525" d="M135.398,115.796h-11.236c-4.962,0-7.469,3.229-7.469,7.818h5.362v8.783v4.744h15.449v-13.526h5.363
			C142.868,119.025,140.363,115.796,135.398,115.796z"/>
	</g>
	<g>
		<g>
			<rect x="149.83" y="95.663" fill="#242D3C" width="37.074" height="2.384"/>
		</g>
		<g>
			<rect x="149.83" y="104.008" fill="#242D3C" width="37.074" height="2.384"/>
		</g>
		<g>
			<rect x="149.83" y="112.353" fill="#242D3C" width="37.074" height="2.385"/>
		</g>
		<g>
			<rect x="149.83" y="120.698" fill="#242D3C" width="37.074" height="2.383"/>
		</g>
		<g>
			<rect x="149.83" y="129.043" fill="#242D3C" width="24.899" height="2.384"/>
		</g>
	</g>
	<circle fill="#10191F" cx="151.022" cy="90.199" r="1.192"/>
	<circle fill="#10191F" cx="156.649" cy="90.199" r="1.192"/>
	<circle fill="#10191F" cx="162.278" cy="90.199" r="1.192"/>
	<circle fill="#10191F" cx="167.905" cy="90.199" r="1.192"/>
	<rect x="149.83" y="140.465" fill="#2AEAEA" width="18.221" height="18.222"/>
	<rect x="172.644" y="144.426" fill="#FF8643" width="14.261" height="14.261"/>
</g>
<g id="Name">
</g>
<g id="Back_paper">
	<g id="Fill_3_">
	</g>
	<g id="Stroke">
	</g>
</g>
<g id="Resume">
	<g id="Fill_1_">
	</g>
	<g id="Stroke_1_">
	</g>
	<g id="Man">
		<g id="Fill_2_">
		</g>
		<g id="Stroke_2_">
		</g>
	</g>
	<g id="Bars">
	</g>
	<g id="Text">
	</g>
</g>
<g id="Pen">
	<g id="Fill">
	</g>
	<g id="Outlines">
	</g>
</g>
<g id="Magnifier">
	<g id="Color_shapes">
	</g>
	<g id="Shapes_inside_magnifier">
	</g>
	<g id="Shadow__x26__Light">
	</g>
	<g id="Outlines_1_">
	</g>
</g>
</svg>
